<svg width="375" height="1622" viewBox="0 0 375 1622" fill="none" xmlns="http://www.w3.org/2000/svg">
<path fill-rule="evenodd" clip-rule="evenodd" d="M-25.7563 -218L27.4966 24.8729V-1.97327H27.7466V25.9017H67.4966V-1.97327H67.7466V25.9017H107.497V-1.97327H107.747V25.9017H147.497V-1.97327H147.747V25.9017H187.497V-1.97327H187.747V25.9017H227.497V-1.97327H227.747V25.9017H267.497V-1.97327H267.747V25.9017H307.497V-1.97327H307.747V25.9017H347.497V-1.97327H347.747V24.8729L400.999 -218L401.244 -217.946L347.747 26.0402V80.9167L359.997 27.2252V-1.97327H360.247V26.1295L394.5 -124.001L394.743 -123.945L360.247 27.2534V85.2501L409 -116.503L409.243 -116.444L360.247 86.3144V147.746L400.001 3.49353L400.242 3.55995L360.247 148.687V208.002L403.502 65.4905L403.741 65.5631L360.247 208.862V267.502L397.503 154.987L397.74 155.066L360.247 268.297V326.778L396.004 227.984L396.239 228.069L360.247 327.512V388.7L399.507 298.477L399.736 298.577L360.247 389.327V448.259L401.01 365.971L401.234 366.082L360.247 448.823V508.406L398.014 444.463L398.229 444.59L360.247 508.898V569.136L389.522 530.451L389.721 530.602L360.247 569.551V628.605L388.531 598.941L388.712 599.113L360.247 628.967V689.507L392.053 668.422L392.191 668.631L360.247 689.807V749.394L388.079 739.409L388.164 739.644L360.247 749.66V809.902H385.122V810.152L360.247 810.152V870.394L388.164 880.409L388.079 880.645L360.247 870.659V930.246L392.191 951.423L392.053 951.631L360.247 930.546V991.086L388.712 1020.94L388.531 1021.11L360.247 991.449V1050.5L389.721 1089.45L389.522 1089.6L360.247 1050.92V1111.16L398.229 1175.46L398.014 1175.59L360.247 1111.65V1171.23L401.234 1253.97L401.01 1254.08L360.247 1171.79V1230.73L399.736 1321.48L399.507 1321.58L360.247 1231.35V1292.54L396.239 1391.98L396.004 1392.07L360.247 1293.28V1351.76L397.74 1464.99L397.503 1465.07L360.247 1352.55V1411.19L403.741 1554.49L403.502 1554.56L360.247 1412.05V1471.37L400.242 1616.49L400.001 1616.56L360.247 1472.31V1533.74L409.243 1736.5L409 1736.56L360.247 1534.8V1592.8L394.743 1744L394.5 1744.05L360.247 1593.92V1622.03H359.997V1592.83L347.747 1539.14V1594.01L401.244 1838L400.999 1838.05L347.747 1595.18V1622.03H347.497V1594.15H307.747V1622.03H307.497V1594.15H267.747V1622.03H267.497V1594.15H227.747V1622.03H227.497V1594.15H187.747V1622.03H187.497V1594.15H147.747V1622.03H147.497V1594.15H107.747V1622.03H107.497V1594.15H67.7466V1622.03H67.4966V1594.15H27.7466V1622.03H27.4966V1595.18L-25.7563 1838.05L-26.0005 1838L27.4966 1594.01V1539.14L15.2466 1592.83V1622.03H14.9966V1593.92L-19.2565 1744.05L-19.5002 1744L14.9966 1592.8V1534.8L-33.757 1736.56L-34 1736.5L14.9966 1533.74V1472.31L-24.758 1616.56L-24.999 1616.49L14.9966 1471.37V1412.05L-28.2588 1554.56L-28.498 1554.49L14.9966 1411.19V1352.55L-22.2597 1465.07L-22.4971 1464.99L14.9966 1351.76V1293.28L-20.7608 1392.07L-20.9958 1391.98L14.9966 1292.54V1231.35L-24.2637 1321.58L-24.4929 1321.48L14.9966 1230.73V1171.79L-25.7665 1254.08L-25.9905 1253.97L14.9966 1171.23V1111.65L-22.7708 1175.59L-22.9861 1175.46L14.9966 1111.16V1050.92L-14.2787 1089.6L-14.478 1089.45L14.9966 1050.5V991.449L-13.2881 1021.11L-13.469 1020.94L14.9966 991.086V930.546L-16.8094 951.631L-16.9475 951.423L14.9966 930.246V870.659L-12.8362 880.645L-12.9207 880.409L14.9966 870.394V810.152L-9.87842 810.152V809.902H14.9966V749.66L-12.9207 739.644L-12.8362 739.409L14.9966 749.394V689.807L-16.9475 668.631L-16.8094 668.422L14.9966 689.507V628.967L-13.469 599.113L-13.2881 598.941L14.9966 628.605V569.551L-14.478 530.602L-14.2787 530.451L14.9966 569.136V508.898L-22.9861 444.59L-22.7708 444.463L14.9966 508.406V448.823L-25.9905 366.082L-25.7665 365.971L14.9966 448.259V389.327L-24.4929 298.577L-24.2637 298.477L14.9966 388.7V327.512L-20.9958 228.069L-20.7608 227.984L14.9966 326.778V268.297L-22.4971 155.066L-22.2597 154.987L14.9966 267.502V208.862L-28.498 65.5631L-28.2588 65.4905L14.9966 208.002V148.687L-24.999 3.55995L-24.758 3.49353L14.9966 147.746V86.3144L-34 -116.444L-33.757 -116.503L14.9966 85.2501V27.2534L-19.5002 -123.945L-19.2565 -124.001L14.9966 26.1295V-1.97327H15.2466V27.2252L27.4966 80.9167V26.0402L-26.0005 -217.946L-25.7563 -218ZM187.497 1593.9V1538.15H147.747V1593.9H187.497ZM187.497 1537.9V1482.15H147.747V1537.9H187.497ZM187.497 1481.9V1426.15H147.747V1481.9H187.497ZM187.497 1425.9V1370.15H147.747V1425.9H187.497ZM187.497 1369.9V1314.15H147.747V1369.9H187.497ZM187.497 1313.9V1258.15H147.747V1313.9H187.497ZM187.497 1257.9V1202.15H147.747V1257.9H187.497ZM187.497 1201.9V1146.15H147.747V1201.9H187.497ZM187.497 1145.9V1090.15H147.747V1145.9H187.497ZM187.497 1089.9V1034.15H147.747V1089.9H187.497ZM187.497 1033.9V978.152H147.747V1033.9H187.497ZM187.497 977.902V922.152H147.747V977.902H187.497ZM187.497 921.902V866.152H147.747V921.902H187.497ZM187.497 865.902V810.152H147.747V865.902H187.497ZM187.747 809.902H227.497V754.152H187.747V809.902ZM227.747 809.902H267.497V754.152H227.747V809.902ZM267.747 809.902H307.497V754.152H267.747V809.902ZM307.747 809.902H347.497V754.152H307.747V809.902ZM347.747 809.902H359.997V749.749L347.747 754.144V809.902ZM187.747 1593.9H227.497V1538.15H187.747V1593.9ZM187.747 1537.9H227.497V1482.15H187.747V1537.9ZM187.747 1481.9H227.497V1426.15H187.747V1481.9ZM187.747 1425.9H227.497V1370.15H187.747V1425.9ZM187.747 1369.9H227.497V1314.15H187.747V1369.9ZM187.747 1313.9H227.497V1258.15H187.747V1313.9ZM187.747 1257.9H227.497V1202.15H187.747V1257.9ZM187.747 1201.9H227.497V1146.15H187.747V1201.9ZM187.747 1145.9H227.497V1090.15H187.747V1145.9ZM187.747 1089.9H227.497V1034.15H187.747V1089.9ZM187.747 1033.9H227.497V978.152H187.747V1033.9ZM187.747 977.902H227.497V922.152H187.747V977.902ZM187.747 921.902H227.497V866.152H187.747V921.902ZM187.747 865.902H227.497V810.152L187.747 810.152V865.902ZM227.747 810.152V865.902H267.497V810.152H227.747ZM267.747 810.152V865.902H307.497V810.152H267.747ZM307.747 810.152V865.902H347.497V810.152H307.747ZM347.747 810.152V865.909L359.997 870.304V810.152H347.747ZM147.747 26.1517H187.497V81.9017H147.747V26.1517ZM147.747 82.1517H187.497V137.902H147.747V82.1517ZM147.747 138.152H187.497V193.902H147.747V138.152ZM147.747 194.152H187.497V249.902H147.747V194.152ZM147.747 250.152H187.497V305.902H147.747V250.152ZM147.747 306.152H187.497V361.902H147.747V306.152ZM147.747 362.152H187.497V417.902H147.747V362.152ZM147.747 418.152H187.497V473.902H147.747V418.152ZM147.747 474.152H187.497V529.902H147.747V474.152ZM147.747 530.152H187.497V585.902H147.747V530.152ZM147.747 586.152H187.497V641.902H147.747V586.152ZM147.747 642.152H187.497V697.902H147.747V642.152ZM147.747 698.152H187.497V753.902H147.747V698.152ZM147.747 754.152H187.497V809.902H147.747V754.152ZM187.747 81.9017V26.1517H227.497V81.9017H187.747ZM187.747 137.902V82.1517H227.497V137.902H187.747ZM187.747 193.902V138.152H227.497V193.902H187.747ZM187.747 249.902V194.152H227.497V249.902H187.747ZM187.747 305.902V250.152H227.497V305.902H187.747ZM187.747 361.902V306.152H227.497V361.902H187.747ZM187.747 417.902V362.152H227.497V417.902H187.747ZM187.747 473.902V418.152H227.497V473.902H187.747ZM187.747 529.902V474.152H227.497V529.902H187.747ZM187.747 585.902V530.152H227.497V585.902H187.747ZM187.747 641.902V586.152H227.497V641.902H187.747ZM187.747 697.902V642.152H227.497V697.902H187.747ZM187.747 753.902V698.152H227.497V753.902H187.747ZM15.2466 809.902H27.4966V754.144L15.2466 749.749V809.902ZM27.7466 809.902H67.4966V754.152H27.7466V809.902ZM67.7466 809.902H107.497V754.152H67.7466V809.902ZM107.747 809.902H147.497V754.152H107.747V809.902ZM15.2466 810.152V870.304L27.4966 865.909V810.152H15.2466ZM27.7466 810.152V865.902H67.4966V810.152H27.7466ZM67.7466 810.152V865.902H107.497V810.152H67.7466ZM107.747 810.152V865.902H147.497V810.152H107.747ZM15.2466 28.3491V86.2846L27.4966 136.978V82.0406L15.2466 28.3491ZM15.2466 148.653V87.3489L27.4966 138.042V193.103L15.2466 148.653ZM15.2466 149.594V208.825L27.4966 249.185V194.044L15.2466 149.594ZM15.2466 209.686L27.4966 250.045V305.252L15.2466 268.257V209.686ZM15.2466 269.052V327.469L27.4966 361.314V306.047L15.2466 269.052ZM15.2466 328.203L27.4966 362.048V417.426L15.2466 389.275V328.203ZM15.2466 389.901V448.764L27.4966 473.493V418.053L15.2466 389.901ZM15.2466 449.327L27.4966 474.056V529.569L15.2466 508.829V449.327ZM15.2466 509.321V569.467L27.4966 585.654V530.061L15.2466 509.321ZM15.2466 569.881L27.4966 586.069V641.715L15.2466 628.867V569.881ZM15.2466 629.229V689.673L27.4966 697.794V642.077L15.2466 629.229ZM15.2466 689.973L27.4966 698.094V753.878L15.2466 749.484V689.973ZM107.747 26.1517H147.497V81.9017H107.747V26.1517ZM67.7466 26.1517H107.497V81.9017H67.7466V26.1517ZM27.7466 26.1517H67.4966V81.9017H27.7466V26.1517ZM27.7466 82.1517V137.902H67.4966V82.1517H27.7466ZM67.7466 82.1517V137.902H107.497V82.1517H67.7466ZM107.747 82.1517V137.902H147.497V82.1517H107.747ZM107.747 138.152H147.497V193.902H107.747V138.152ZM67.7466 138.152H107.497V193.902H67.7466V138.152ZM27.7466 138.152H67.4966V193.902H27.7466V138.152ZM27.7466 194.152V249.902H67.4966V194.152H27.7466ZM67.7466 194.152V249.902H107.497V194.152H67.7466ZM107.747 194.152V249.902H147.497V194.152H107.747ZM107.747 250.152H147.497V305.902H107.747V250.152ZM67.7466 250.152H107.497V305.902H67.7466V250.152ZM27.7466 250.152H67.4966V305.902H27.7466V250.152ZM27.7466 306.152V361.902H67.4966V306.152H27.7466ZM67.7466 306.152V361.902H107.497V306.152H67.7466ZM107.747 306.152V361.902H147.497V306.152H107.747ZM107.747 362.152H147.497V417.902H107.747V362.152ZM67.7466 362.152H107.497V417.902H67.7466V362.152ZM27.7466 362.152H67.4966V417.902H27.7466V362.152ZM27.7466 418.152V473.902H67.4966V418.152H27.7466ZM67.7466 418.152V473.902H107.497V418.152H67.7466ZM107.747 418.152V473.902H147.497V418.152H107.747ZM107.747 474.152H147.497V529.902H107.747V474.152ZM67.7466 474.152H107.497V529.902H67.7466V474.152ZM27.7466 474.152H67.4966V529.902H27.7466V474.152ZM27.7466 530.152V585.902H67.4966V530.152H27.7466ZM67.7466 530.152V585.902H107.497V530.152H67.7466ZM107.747 530.152V585.902H147.497V530.152H107.747ZM107.747 586.152H147.497V641.902H107.747V586.152ZM67.7466 586.152H107.497V641.902H67.7466V586.152ZM27.7466 586.152H67.4966V641.902H27.7466V586.152ZM27.7466 642.152V697.902H67.4966V642.152H27.7466ZM67.7466 642.152V697.902H107.497V642.152H67.7466ZM107.747 642.152V697.902H147.497V642.152H107.747ZM107.747 698.152H147.497V753.902H107.747V698.152ZM67.7466 698.152H107.497V753.902H67.7466V698.152ZM27.7466 698.152H67.4966V753.902H27.7466V698.152ZM15.2466 1591.7V1533.77L27.4966 1483.08V1538.01L15.2466 1591.7ZM15.2466 1471.4V1532.7L27.4966 1482.01V1426.95L15.2466 1471.4ZM15.2466 1470.46V1411.23L27.4966 1370.87V1426.01L15.2466 1470.46ZM15.2466 1410.37L27.4966 1370.01V1314.8L15.2466 1351.8V1410.37ZM15.2466 1351V1292.59L27.4966 1258.74V1314.01L15.2466 1351ZM15.2466 1291.85L27.4966 1258.01V1202.63L15.2466 1230.78V1291.85ZM15.2466 1230.15V1171.29L27.4966 1146.56V1202L15.2466 1230.15ZM15.2466 1170.73L27.4966 1146V1090.48L15.2466 1111.22V1170.73ZM15.2466 1110.73V1050.59L27.4966 1034.4V1089.99L15.2466 1110.73ZM15.2466 1050.17L27.4966 1033.98V978.339L15.2466 991.187V1050.17ZM15.2466 990.824V930.381L27.4966 922.26V977.977L15.2466 990.824ZM15.2466 930.081L27.4966 921.96V866.175L15.2466 870.57V930.081ZM107.747 1593.9H147.497V1538.15H107.747V1593.9ZM67.7466 1593.9H107.497V1538.15H67.7466V1593.9ZM27.7466 1593.9H67.4966V1538.15H27.7466V1593.9ZM27.7466 1537.9V1482.15H67.4966V1537.9H27.7466ZM67.7466 1537.9V1482.15H107.497V1537.9H67.7466ZM107.747 1537.9V1482.15H147.497V1537.9H107.747ZM107.747 1481.9H147.497V1426.15H107.747V1481.9ZM67.7466 1481.9H107.497V1426.15H67.7466V1481.9ZM27.7466 1481.9H67.4966V1426.15H27.7466V1481.9ZM27.7466 1425.9V1370.15H67.4966V1425.9H27.7466ZM67.7466 1425.9V1370.15H107.497V1425.9H67.7466ZM107.747 1425.9V1370.15H147.497V1425.9H107.747ZM107.747 1369.9H147.497V1314.15H107.747V1369.9ZM67.7466 1369.9H107.497V1314.15H67.7466V1369.9ZM27.7466 1369.9H67.4966V1314.15H27.7466V1369.9ZM27.7466 1313.9V1258.15H67.4966V1313.9H27.7466ZM67.7466 1313.9V1258.15H107.497V1313.9H67.7466ZM107.747 1313.9V1258.15H147.497V1313.9H107.747ZM107.747 1257.9H147.497V1202.15H107.747V1257.9ZM67.7466 1257.9H107.497V1202.15H67.7466V1257.9ZM27.7466 1257.9H67.4966V1202.15H27.7466V1257.9ZM27.7466 1201.9V1146.15H67.4966V1201.9H27.7466ZM67.7466 1201.9V1146.15H107.497V1201.9H67.7466ZM107.747 1201.9V1146.15H147.497V1201.9H107.747ZM107.747 1145.9H147.497V1090.15H107.747V1145.9ZM67.7466 1145.9H107.497V1090.15H67.7466V1145.9ZM27.7466 1145.9H67.4966V1090.15H27.7466V1145.9ZM27.7466 1089.9V1034.15H67.4966V1089.9H27.7466ZM67.7466 1089.9V1034.15H107.497V1089.9H67.7466ZM107.747 1089.9V1034.15H147.497V1089.9H107.747ZM107.747 1033.9H147.497V978.152H107.747V1033.9ZM67.7466 1033.9H107.497V978.152H67.7466V1033.9ZM27.7466 1033.9H67.4966V978.152H27.7466V1033.9ZM27.7466 977.902V922.152H67.4966V977.902H27.7466ZM67.7466 977.902V922.152H107.497V977.902H67.7466ZM107.747 977.902V922.152H147.497V977.902H107.747ZM107.747 921.902H147.497V866.152H107.747V921.902ZM67.7466 921.902H107.497V866.152H67.7466V921.902ZM27.7466 921.902H67.4966V866.152H27.7466V921.902ZM359.997 86.2846V28.3491L347.747 82.0406V136.978L359.997 86.2846ZM359.997 87.3489V148.653L347.747 193.103V138.042L359.997 87.3489ZM359.997 208.825V149.594L347.747 194.044V249.185L359.997 208.825ZM347.747 250.045L359.997 209.686V268.257L347.747 305.252V250.045ZM359.997 327.469V269.052L347.747 306.047V361.314L359.997 327.469ZM347.747 362.048L359.997 328.203V389.275L347.747 417.426V362.048ZM359.997 448.764V389.901L347.747 418.053V473.493L359.997 448.764ZM347.747 474.056L359.997 449.327V508.829L347.747 529.569V474.056ZM359.997 569.467V509.321L347.747 530.061V585.654L359.997 569.467ZM347.747 586.069L359.997 569.881V628.867L347.747 641.715V586.069ZM359.997 689.673V629.229L347.747 642.077V697.794L359.997 689.673ZM347.747 698.094L359.997 689.973V749.484L347.747 753.878V698.094ZM227.747 26.1517H267.497V81.9017H227.747V26.1517ZM267.747 26.1517H307.497V81.9017H267.747V26.1517ZM307.747 26.1517H347.497V81.9017H307.747V26.1517ZM347.497 137.902V82.1517H307.747V137.902H347.497ZM307.497 137.902V82.1517H267.747V137.902H307.497ZM267.497 137.902V82.1517H227.747V137.902H267.497ZM227.747 138.152H267.497V193.902H227.747V138.152ZM267.747 138.152H307.497V193.902H267.747V138.152ZM307.747 138.152H347.497V193.902H307.747V138.152ZM347.497 249.902V194.152H307.747V249.902H347.497ZM307.497 249.902V194.152H267.747V249.902H307.497ZM267.497 249.902V194.152H227.747V249.902H267.497ZM227.747 250.152H267.497V305.902H227.747V250.152ZM267.747 250.152H307.497V305.902H267.747V250.152ZM307.747 250.152H347.497V305.902H307.747V250.152ZM347.497 361.902V306.152H307.747V361.902H347.497ZM307.497 361.902V306.152H267.747V361.902H307.497ZM267.497 361.902V306.152H227.747V361.902H267.497ZM227.747 362.152H267.497V417.902H227.747V362.152ZM267.747 362.152H307.497V417.902H267.747V362.152ZM307.747 362.152H347.497V417.902H307.747V362.152ZM347.497 473.902V418.152H307.747V473.902H347.497ZM307.497 473.902V418.152H267.747V473.902H307.497ZM267.497 473.902V418.152H227.747V473.902H267.497ZM227.747 474.152H267.497V529.902H227.747V474.152ZM267.747 474.152H307.497V529.902H267.747V474.152ZM307.747 474.152H347.497V529.902H307.747V474.152ZM347.497 585.902V530.152H307.747V585.902H347.497ZM307.497 585.902V530.152H267.747V585.902H307.497ZM267.497 585.902V530.152H227.747V585.902H267.497ZM227.747 586.152H267.497V641.902H227.747V586.152ZM267.747 586.152H307.497V641.902H267.747V586.152ZM307.747 586.152H347.497V641.902H307.747V586.152ZM347.497 697.902V642.152H307.747V697.902H347.497ZM307.497 697.902V642.152H267.747V697.902H307.497ZM267.497 697.902V642.152H227.747V697.902H267.497ZM227.747 698.152H267.497V753.902H227.747V698.152ZM267.747 698.152H307.497V753.902H267.747V698.152ZM307.747 698.152H347.497V753.902H307.747V698.152ZM359.997 1591.7V1533.77L347.747 1483.08V1538.01L359.997 1591.7ZM359.997 1471.4V1532.7L347.747 1482.01V1426.95L359.997 1471.4ZM359.997 1470.46V1411.23L347.747 1370.87V1426.01L359.997 1470.46ZM359.997 1410.37L347.747 1370.01V1314.8L359.997 1351.8V1410.37ZM359.997 1351V1292.59L347.747 1258.74V1314.01L359.997 1351ZM359.997 1291.85L347.747 1258.01V1202.63L359.997 1230.78V1291.85ZM359.997 1230.15V1171.29L347.747 1146.56V1202L359.997 1230.15ZM359.997 1170.73L347.747 1146V1090.48L359.997 1111.22V1170.73ZM359.997 1110.73V1050.59L347.747 1034.4V1089.99L359.997 1110.73ZM359.997 1050.17L347.747 1033.98V978.339L359.997 991.187V1050.17ZM359.997 990.824V930.381L347.747 922.26V977.977L359.997 990.824ZM359.997 930.081L347.747 921.96V866.175L359.997 870.57V930.081ZM267.497 1593.9H227.747V1538.15H267.497V1593.9ZM307.497 1593.9H267.747V1538.15H307.497V1593.9ZM347.497 1593.9H307.747V1538.15H347.497V1593.9ZM347.497 1537.9V1482.15H307.747V1537.9H347.497ZM307.497 1537.9V1482.15H267.747V1537.9H307.497ZM267.497 1537.9V1482.15H227.747V1537.9H267.497ZM267.497 1481.9H227.747V1426.15H267.497V1481.9ZM307.497 1481.9H267.747V1426.15H307.497V1481.9ZM347.497 1481.9H307.747V1426.15H347.497V1481.9ZM347.497 1425.9V1370.15H307.747V1425.9H347.497ZM307.497 1425.9V1370.15H267.747V1425.9H307.497ZM267.497 1425.9V1370.15H227.747V1425.9H267.497ZM267.497 1369.9H227.747V1314.15H267.497V1369.9ZM307.497 1369.9H267.747V1314.15H307.497V1369.9ZM347.497 1369.9H307.747V1314.15H347.497V1369.9ZM347.497 1313.9V1258.15H307.747V1313.9H347.497ZM307.497 1313.9V1258.15H267.747V1313.9H307.497ZM267.497 1313.9V1258.15H227.747V1313.9H267.497ZM267.497 1257.9H227.747V1202.15H267.497V1257.9ZM307.497 1257.9H267.747V1202.15H307.497V1257.9ZM347.497 1257.9H307.747V1202.15H347.497V1257.9ZM347.497 1201.9V1146.15H307.747V1201.9H347.497ZM307.497 1201.9V1146.15H267.747V1201.9H307.497ZM267.497 1201.9V1146.15H227.747V1201.9H267.497ZM267.497 1145.9H227.747V1090.15H267.497V1145.9ZM307.497 1145.9H267.747V1090.15H307.497V1145.9ZM347.497 1145.9H307.747V1090.15H347.497V1145.9ZM347.497 1089.9V1034.15H307.747V1089.9H347.497ZM307.497 1089.9V1034.15H267.747V1089.9H307.497ZM267.497 1089.9V1034.15H227.747V1089.9H267.497ZM267.497 1033.9H227.747V978.152H267.497V1033.9ZM307.497 1033.9H267.747V978.152H307.497V1033.9ZM347.497 1033.9H307.747V978.152H347.497V1033.9ZM347.497 977.902V922.152H307.747V977.902H347.497ZM307.497 977.902V922.152H267.747V977.902H307.497ZM267.497 977.902V922.152H227.747V977.902H267.497ZM267.497 921.902H227.747V866.152H267.497V921.902ZM307.497 921.902H267.747V866.152H307.497V921.902ZM347.497 921.902H307.747V866.152H347.497V921.902Z" fill="#c62f54"/>
</svg>
